<svg width="241" height="180" viewBox="0 0 241 180" fill="none" xmlns="http://www.w3.org/2000/svg">
<g filter="url(#filter0_ii_301_33)">
<path d="M226.745 23.9374V142.139C226.745 145.877 223.715 148.907 219.977 148.907H20.3055C16.5674 148.907 13.537 145.877 13.537 142.139V6.76851C13.537 3.03036 16.5674 0 20.3055 0H85.1799C89.1801 0 93.0508 1.4171 96.1054 3.99982L109.788 15.569C111.01 16.6021 112.558 17.1689 114.158 17.1689H219.977C223.715 17.1689 226.745 20.1993 226.745 23.9374Z" fill="url(#paint0_linear_301_33)"/>
</g>
<g filter="url(#filter1_dii_301_33)">
<path d="M13.537 40.8587V159.06C13.537 162.798 16.5674 165.828 20.3055 165.828H219.977C223.715 165.828 226.745 162.798 226.745 159.06V30.4583C226.745 26.7201 223.715 23.6898 219.977 23.6898H118.211C113.919 23.6898 109.688 24.7101 105.868 26.6667L97.187 31.1132C93.367 33.0698 89.1366 34.0901 84.8447 34.0901H20.3055C16.5674 34.0901 13.537 37.1205 13.537 40.8587Z" fill="url(#paint1_linear_301_33)"/>
</g>
<defs>
<filter id="filter0_ii_301_33" x="13.537" y="-3.38425" width="213.208" height="153.984" filterUnits="userSpaceOnUse" color-interpolation-filters="sRGB">
<feFlood flood-opacity="0" result="BackgroundImageFix"/>
<feBlend mode="normal" in="SourceGraphic" in2="BackgroundImageFix" result="shape"/>
<feColorMatrix in="SourceAlpha" type="matrix" values="0 0 0 0 0 0 0 0 0 0 0 0 0 0 0 0 0 0 127 0" result="hardAlpha"/>
<feOffset dy="1.69213"/>
<feGaussianBlur stdDeviation="1.69213"/>
<feComposite in2="hardAlpha" operator="arithmetic" k2="-1" k3="1"/>
<feColorMatrix type="matrix" values="0 0 0 0 0.941176 0 0 0 0 0.839216 0 0 0 0 0.301961 0 0 0 1 0"/>
<feBlend mode="normal" in2="shape" result="effect1_innerShadow_301_33"/>
<feColorMatrix in="SourceAlpha" type="matrix" values="0 0 0 0 0 0 0 0 0 0 0 0 0 0 0 0 0 0 127 0" result="hardAlpha"/>
<feOffset dy="-3.38425"/>
<feGaussianBlur stdDeviation="1.69213"/>
<feComposite in2="hardAlpha" operator="arithmetic" k2="-1" k3="1"/>
<feColorMatrix type="matrix" values="0 0 0 0 0.811765 0 0 0 0 0.521569 0 0 0 0 0.2 0 0 0 1 0"/>
<feBlend mode="normal" in2="effect1_innerShadow_301_33" result="effect2_innerShadow_301_33"/>
</filter>
<filter id="filter1_dii_301_33" x="9.53674e-07" y="10.1527" width="240.282" height="169.213" filterUnits="userSpaceOnUse" color-interpolation-filters="sRGB">
<feFlood flood-opacity="0" result="BackgroundImageFix"/>
<feColorMatrix in="SourceAlpha" type="matrix" values="0 0 0 0 0 0 0 0 0 0 0 0 0 0 0 0 0 0 127 0" result="hardAlpha"/>
<feOffset/>
<feGaussianBlur stdDeviation="6.76851"/>
<feComposite in2="hardAlpha" operator="out"/>
<feColorMatrix type="matrix" values="0 0 0 0 0 0 0 0 0 0 0 0 0 0 0 0 0 0 0.1 0"/>
<feBlend mode="normal" in2="BackgroundImageFix" result="effect1_dropShadow_301_33"/>
<feBlend mode="normal" in="SourceGraphic" in2="effect1_dropShadow_301_33" result="shape"/>
<feColorMatrix in="SourceAlpha" type="matrix" values="0 0 0 0 0 0 0 0 0 0 0 0 0 0 0 0 0 0 127 0" result="hardAlpha"/>
<feOffset dy="1.69213"/>
<feGaussianBlur stdDeviation="3.38425"/>
<feComposite in2="hardAlpha" operator="arithmetic" k2="-1" k3="1"/>
<feColorMatrix type="matrix" values="0 0 0 0 1 0 0 0 0 0.974775 0 0 0 0 0.733333 0 0 0 1 0"/>
<feBlend mode="normal" in2="shape" result="effect2_innerShadow_301_33"/>
<feColorMatrix in="SourceAlpha" type="matrix" values="0 0 0 0 0 0 0 0 0 0 0 0 0 0 0 0 0 0 127 0" result="hardAlpha"/>
<feOffset dy="-3.38425"/>
<feGaussianBlur stdDeviation="1.69213"/>
<feComposite in2="hardAlpha" operator="arithmetic" k2="-1" k3="1"/>
<feColorMatrix type="matrix" values="0 0 0 0 0.811765 0 0 0 0 0.521569 0 0 0 0 0.2 0 0 0 1 0"/>
<feBlend mode="normal" in2="effect2_innerShadow_301_33" result="effect3_innerShadow_301_33"/>
</filter>
<linearGradient id="paint0_linear_301_33" x1="82.9142" y1="6.7685" x2="84.6063" y2="37.2268" gradientUnits="userSpaceOnUse">
<stop offset="0.0416796" stop-color="#E1AE40"/>
<stop offset="1" stop-color="#ECAB3F"/>
</linearGradient>
<linearGradient id="paint1_linear_301_33" x1="120.141" y1="23.6898" x2="120.141" y2="165.828" gradientUnits="userSpaceOnUse">
<stop stop-color="#F8D555"/>
<stop offset="1" stop-color="#E0A53F"/>
</linearGradient>
</defs>
</svg>
