<?xml version="1.0" encoding="UTF-8"?>
<svg id="Livello_2" xmlns="http://www.w3.org/2000/svg" version="1.1" viewBox="0 0 1909 927.5">
  <!-- Generator: Adobe Illustrator 29.1.0, SVG Export Plug-In . SVG Version: 2.1.0 Build 142)  -->
  <defs>
    <style>
      .st0 {
        fill: none;
        stroke: #231f20;
        stroke-miterlimit: 10;
      }

      .st1 {
        fill: #231f20;
      }
    </style>
  </defs>
  <g id="Livello_1-2">
    <path class="st1" d="M36.8,928c-5.2,0-9.9-.3-12.9-1.5h-.3v-1.1l-4-1v-.9h-1.8l-1-2h-2.2v-1.2l-4-3v-2l-2.9-2-1-4-2-1-5.1-15.4v-179L.5,95.8l20.2-18.1,4.1-5.1h2l10-11h2l10-11h2l7.9-8.9,2.8-1.9v-1.2h2.3l10-11h2l8.9-9.8c1.4-1.3,3-2.4,4.5-3.5,1.6-1.1,3.2-2.2,4.5-3.5l5.1-6.1h116.1c2.5-1.9,9.2-1.5,14.6-1.2,1.7.1,3.3.2,4.5.2h258L1293,.5h273c1,0,2.4,0,4,.1,5.2.2,14,.5,15.7-1h.1c0-.1,232.4-.1,232.4-.1v.2c11.8,12,23.4,24,35.1,35.9,11.4,11.7,22.7,23.4,34.1,35.1l22.1,21.1v789.4s-4.1,14.4-4.1,14.4h-1l-1,3.8-1.9,1v2l-2,1v1.9l-7.1,6.1-2.1,3.2h-2l-2,2.9-4,1-1,2.1h-1.8v1h-3v1h-2v.9l-6,1v.9h-.3c-6.4,2.2-15.3,1.8-24,1.4-3.3-.2-6.3-.3-9.2-.3h-320l-1078,1H55c-2.3,0-5,.1-7.9.2-3.4.1-7,.3-10.4.3ZM24.5,925.7c5,1.8,14.7,1.4,22.6,1.1,2.9-.1,5.6-.2,7.9-.2h382l1078-1h320c2.9,0,6,.1,9.2.3,8.4.4,17.1.8,23.3-1.2v-1.1l6-1v-1.1h2v-1h3v-1h2.2l1-1.9,4-1,2-3.1h2l1.9-2.9,6.8-5.9v-2.1l2-1v-2l2.1-1,1-4.2h1l3.9-13.6V92.2l-21.8-20.9c-11.4-11.7-22.7-23.4-34.1-35.1-11.6-11.9-23.2-23.9-34.8-35.8h-231.6c-2,1.5-8.8,1.4-16.2,1.1-1.6,0-3-.1-4-.1h-273l-801,3H234c-1.2,0-2.9,0-4.6-.2-5.1-.3-12-.7-14.1,1.1h-.1c0,.1-116,.1-116,.1l-4.8,5.8c-1.4,1.4-3.1,2.6-4.7,3.7-1.5,1-3,2.1-4.3,3.4l-9.1,10.1h-2l-10,11h-1.7v.8l-3.2,2.1-8.1,9.1h-2l-10,11h-2l-10,11h-2l-3.8,4.8L1.5,96.2l-1,617.8v178.9l4.9,14.7,2,1,1,4,3.1,2v2l4,3v.8h1.8l1,2h2.2v1.1l4,1v1Z"/>
    <path class="st0" d="M458,319c-4.2,3.5-15-.7-21,1v1h-14c-4.9,1.4-13.5-.6-19,1v1h-8v1h-6v1h-5v1h-5l-28,9v1c-2,.7-4,1.3-6,2v1h-2v1h-2v1h-2v1h-2v1h-2l-2,2h-2l-1,2-4,1-1,2h-2l-1,2h-2l-1,2h-2l-1,2h-2l-2,3h-2l-2,3-3,1-7,8h-2l-4,5-2,1v2l-8,7v2l-4,3-1,3-2,1v2l-2,1-1,3h-1v2l-2,1-1,3h-1l-1,4-2,1v2l-2,2v2h-1v2h-1v2h-1v2h-1l-2,6h-1v3h-1v2h-1v3h-1v2h-1v3h-1v3h-1v3h-1v3h-1l-2,13c-6.3,20.7-5.6,58.3,1,78l1,8,8,23h1l2,6h1v2h1v2h1l2,6,2,1,1,4,2,1,1,4h1l1,3,2,1v2l2,1,1,3,3,2v2l5,4v2l10,9,8,9h2l4,5h2l1,2h1l1,2h2l1,2,3,1v1h2l1,2h2l1,2h2l1,2,6,2,1,2,4,1v1l6,2v1h3v1l4,1v1l5,1v1l28,8h6v1h6v1h10v1l69-1h991v-1c4.9-1.4,18.5,0,22,1l26,1h10v-1h10v-1h7c13.9-4.1,28.5-6.4,41-12v-1l6-2v-1h2v-1h2v-1h2v-1h2v-1h2l2-2h2l1-2,4-1v-1l3-1,1-2h2l1-2h2l2-3h2l1-2h1l1-2h2l4-5h2l9-10,6-5v-2l5-4v-2l4-3,1-3,2-1v-2l2-1,1-3h1v-2l2-1,1-4,2-1v-2l2-2v-2h1v-2l2-1v-2h1v-3h1v-2h1l1-4h1v-3h1v-2h1v-3h1v-2h1l8-31v-7c5.2-18.5,1.1-51.9-4-67l-1-8h-1v-3h-1v-3h-1v-3h-1v-2h-1v-3h-1v-2h-1v-3h-1l-1-4h-1v-2h-1v-3h-1v-2l-2-1v-2h-1v-2l-2-2v-2l-2-1v-2h-1v-2h-1l-1-3-2-1v-2l-2-1v-2l-3-2v-2l-3-2v-2l-6-5v-2l-10-9-5-6h-2l-5-6-3-1-1-2h-2l-2-3h-2l-1-2-3-1v-1h-2l-1-2-4-1-1-2-6-2-1-2-6-2-1-2c-2-.7-4-1.3-6-2v-1h-2v-1l-6-2v-1l-6-1v-1h-2v-1l-7-1c-28.8-10.2-70.7-8-110-8H458Z"/>
  </g>
</svg>